<?xml version="1.0" encoding="UTF-8" standalone="no"?>
<!DOCTYPE svg PUBLIC "-//W3C//DTD SVG 1.1//EN"
 "http://www.w3.org/Graphics/SVG/1.1/DTD/svg11.dtd">
<!-- Generated by graphviz version 2.47.2 (20210527.0053)
 -->
<!-- Pages: 1 -->
<svg width="218pt" height="116pt"
 viewBox="0.00 0.00 218.00 116.00" xmlns="http://www.w3.org/2000/svg" xmlns:xlink="http://www.w3.org/1999/xlink">
<g id="graph0" class="graph" transform="scale(1 1) rotate(0) translate(4 112)">
<polygon fill="white" stroke="transparent" points="-4,4 -4,-112 214,-112 214,4 -4,4"/>
<!-- org.sterl.testproject.simple.FooManager -->
<g id="node1" class="node">
<title>org.sterl.testproject.simple.FooManager</title>
<polygon fill="#28a745" stroke="black" points="86,-108 0,-108 0,-72 86,-72 86,-108"/>
<text text-anchor="middle" x="43" y="-86.3" font-family="Times,serif" font-size="14.00" fill="white">FooManager</text>
</g>
<!-- org.sterl.testproject.simple.BarActivity -->
<g id="node2" class="node">
<title>org.sterl.testproject.simple.BarActivity</title>
<polygon fill="#28a745" stroke="black" points="83,-36 3,-36 3,0 83,0 83,-36"/>
<text text-anchor="middle" x="43" y="-14.3" font-family="Times,serif" font-size="14.00" fill="white">BarActivity</text>
</g>
<!-- org.sterl.testproject.simple.FooManager&#45;&gt;org.sterl.testproject.simple.BarActivity -->
<g id="edge1" class="edge">
<title>org.sterl.testproject.simple.FooManager&#45;&gt;org.sterl.testproject.simple.BarActivity</title>
<path fill="none" stroke="black" d="M43,-71.7C43,-63.98 43,-54.71 43,-46.11"/>
<polygon fill="black" stroke="black" points="46.5,-46.1 43,-36.1 39.5,-46.1 46.5,-46.1"/>
</g>
<!-- org.sterl.testproject.simple.SimpleEntityBE -->
<g id="node3" class="node">
<title>org.sterl.testproject.simple.SimpleEntityBE</title>
<polygon fill="#28a745" stroke="black" points="210,-108 104,-108 104,-72 210,-72 210,-108"/>
<text text-anchor="middle" x="157" y="-86.3" font-family="Times,serif" font-size="14.00" fill="white">SimpleEntityBE</text>
</g>
</g>
</svg>
