<?xml version="1.0" encoding="UTF-8" standalone="no"?>
<!DOCTYPE svg PUBLIC "-//W3C//DTD SVG 1.1//EN"
 "http://www.w3.org/Graphics/SVG/1.1/DTD/svg11.dtd">
<!-- Generated by graphviz version 2.47.2 (20210527.0053)
 -->
<!-- Pages: 1 -->
<svg width="387pt" height="332pt"
 viewBox="0.00 0.00 386.50 332.00" xmlns="http://www.w3.org/2000/svg" xmlns:xlink="http://www.w3.org/1999/xlink">
<g id="graph0" class="graph" transform="scale(1 1) rotate(0) translate(4 328)">
<polygon fill="white" stroke="transparent" points="-4,4 -4,-328 382.5,-328 382.5,4 -4,4"/>
<!-- org.sterl.testproject.persons.activity.PersonManager -->
<g id="node1" class="node">
<title>org.sterl.testproject.persons.activity.PersonManager</title>
<polygon fill="#28a745" stroke="black" points="355.5,-252 253.5,-252 253.5,-216 355.5,-216 355.5,-252"/>
<text text-anchor="middle" x="304.5" y="-230.3" font-family="Times,serif" font-size="14.00" fill="white">PersonManager</text>
</g>
<!-- org.sterl.testproject.addresses.activity.AddressManager -->
<g id="node2" class="node">
<title>org.sterl.testproject.addresses.activity.AddressManager</title>
<polygon fill="#007bff" stroke="black" points="235.5,-180 125.5,-180 125.5,-144 235.5,-144 235.5,-180"/>
<text text-anchor="middle" x="180.5" y="-158.3" font-family="Times,serif" font-size="14.00" fill="white">AddressManager</text>
</g>
<!-- org.sterl.testproject.persons.activity.PersonManager&#45;&gt;org.sterl.testproject.addresses.activity.AddressManager -->
<g id="edge1" class="edge">
<title>org.sterl.testproject.persons.activity.PersonManager&#45;&gt;org.sterl.testproject.addresses.activity.AddressManager</title>
<path fill="none" stroke="black" d="M274.17,-215.88C257.8,-206.64 237.42,-195.13 219.85,-185.21"/>
<polygon fill="black" stroke="black" points="221.38,-182.06 210.95,-180.19 217.94,-188.15 221.38,-182.06"/>
</g>
<!-- org.sterl.testproject.persons.dao.PersonDao -->
<g id="node3" class="node">
<title>org.sterl.testproject.persons.dao.PersonDao</title>
<polygon fill="#28a745" stroke="black" points="329.5,-180 253.5,-180 253.5,-144 329.5,-144 329.5,-180"/>
<text text-anchor="middle" x="291.5" y="-158.3" font-family="Times,serif" font-size="14.00" fill="white">PersonDao</text>
</g>
<!-- org.sterl.testproject.persons.activity.PersonManager&#45;&gt;org.sterl.testproject.persons.dao.PersonDao -->
<g id="edge2" class="edge">
<title>org.sterl.testproject.persons.activity.PersonManager&#45;&gt;org.sterl.testproject.persons.dao.PersonDao</title>
<path fill="none" stroke="black" d="M301.29,-215.7C299.85,-207.98 298.13,-198.71 296.54,-190.11"/>
<polygon fill="black" stroke="black" points="299.94,-189.3 294.68,-180.1 293.06,-190.58 299.94,-189.3"/>
</g>
<!-- org.sterl.testproject.persons.model.PersonBE -->
<g id="node4" class="node">
<title>org.sterl.testproject.persons.model.PersonBE</title>
<polygon fill="#28a745" stroke="black" points="327,-108 256,-108 256,-72 327,-72 327,-108"/>
<text text-anchor="middle" x="291.5" y="-86.3" font-family="Times,serif" font-size="14.00" fill="white">PersonBE</text>
</g>
<!-- org.sterl.testproject.persons.activity.PersonManager&#45;&gt;org.sterl.testproject.persons.model.PersonBE -->
<g id="edge3" class="edge">
<title>org.sterl.testproject.persons.activity.PersonManager&#45;&gt;org.sterl.testproject.persons.model.PersonBE</title>
<path fill="none" stroke="black" d="M319.25,-215.63C326.59,-205.85 334.69,-193.01 338.5,-180 343,-164.65 344.18,-158.96 338.5,-144 334.53,-133.54 327.45,-123.83 319.97,-115.65"/>
<polygon fill="black" stroke="black" points="322.27,-112.99 312.77,-108.3 317.27,-117.89 322.27,-112.99"/>
</g>
<!-- org.sterl.testproject.persons.dao.PersonDao&#45;&gt;org.sterl.testproject.persons.model.PersonBE -->
<g id="edge4" class="edge">
<title>org.sterl.testproject.persons.dao.PersonDao&#45;&gt;org.sterl.testproject.persons.model.PersonBE</title>
<path fill="none" stroke="black" d="M291.5,-143.7C291.5,-135.98 291.5,-126.71 291.5,-118.11"/>
<polygon fill="black" stroke="black" points="295,-118.1 291.5,-108.1 288,-118.1 295,-118.1"/>
</g>
<!-- org.sterl.testproject.addresses.model.AddressBE -->
<g id="node5" class="node">
<title>org.sterl.testproject.addresses.model.AddressBE</title>
<polygon fill="#007bff" stroke="black" points="197.5,-36 119.5,-36 119.5,0 197.5,0 197.5,-36"/>
<text text-anchor="middle" x="158.5" y="-14.3" font-family="Times,serif" font-size="14.00" fill="white">AddressBE</text>
</g>
<!-- org.sterl.testproject.persons.model.PersonBE&#45;&gt;org.sterl.testproject.addresses.model.AddressBE -->
<g id="edge5" class="edge">
<title>org.sterl.testproject.persons.model.PersonBE&#45;&gt;org.sterl.testproject.addresses.model.AddressBE</title>
<path fill="none" stroke="black" d="M258.96,-71.88C241.25,-62.55 219.15,-50.92 200.18,-40.94"/>
<polygon fill="black" stroke="black" points="201.64,-37.75 191.16,-36.19 198.38,-43.94 201.64,-37.75"/>
</g>
<!-- org.sterl.testproject.persons.api.PersonBF -->
<g id="node6" class="node">
<title>org.sterl.testproject.persons.api.PersonBF</title>
<polygon fill="#28a745" stroke="black" points="378.5,-324 308.5,-324 308.5,-288 378.5,-288 378.5,-324"/>
<text text-anchor="middle" x="343.5" y="-302.3" font-family="Times,serif" font-size="14.00" fill="white">PersonBF</text>
</g>
<!-- org.sterl.testproject.persons.api.PersonBF&#45;&gt;org.sterl.testproject.persons.activity.PersonManager -->
<g id="edge6" class="edge">
<title>org.sterl.testproject.persons.api.PersonBF&#45;&gt;org.sterl.testproject.persons.activity.PersonManager</title>
<path fill="none" stroke="black" d="M333.86,-287.7C329.37,-279.64 323.94,-269.89 318.98,-260.98"/>
<polygon fill="black" stroke="black" points="321.95,-259.14 314.03,-252.1 315.84,-262.54 321.95,-259.14"/>
</g>
<!-- org.sterl.testproject.persons.api.PersonBF&#45;&gt;org.sterl.testproject.persons.model.PersonBE -->
<g id="edge7" class="edge">
<title>org.sterl.testproject.persons.api.PersonBF&#45;&gt;org.sterl.testproject.persons.model.PersonBE</title>
<path fill="none" stroke="black" d="M352.22,-287.83C356.87,-277.69 362.12,-264.44 364.5,-252 373.54,-204.65 377.81,-186.2 354.5,-144 348.17,-132.55 338.32,-122.51 328.26,-114.34"/>
<polygon fill="black" stroke="black" points="330.29,-111.49 320.22,-108.19 326.04,-117.05 330.29,-111.49"/>
</g>
<!-- org.sterl.testproject.persons.api.PersonConverter -->
<g id="node7" class="node">
<title>org.sterl.testproject.persons.api.PersonConverter</title>
<polygon fill="#28a745" stroke="black" points="107,-180 0,-180 0,-144 107,-144 107,-180"/>
<text text-anchor="middle" x="53.5" y="-158.3" font-family="Times,serif" font-size="14.00" fill="white">PersonConverter</text>
</g>
<!-- org.sterl.testproject.persons.api.PersonConverter&#45;&gt;org.sterl.testproject.persons.model.PersonBE -->
<g id="edge9" class="edge">
<title>org.sterl.testproject.persons.api.PersonConverter&#45;&gt;org.sterl.testproject.persons.model.PersonBE</title>
<path fill="none" stroke="black" d="M107.21,-145.2C149.04,-132.9 206.47,-116.01 246.05,-104.37"/>
<polygon fill="black" stroke="black" points="247.1,-107.71 255.7,-101.53 245.12,-100.99 247.1,-107.71"/>
</g>
<!-- org.sterl.testproject.persons.api.PersonConverter&#45;&gt;org.sterl.testproject.addresses.model.AddressBE -->
<g id="edge8" class="edge">
<title>org.sterl.testproject.persons.api.PersonConverter&#45;&gt;org.sterl.testproject.addresses.model.AddressBE</title>
<path fill="none" stroke="black" d="M46.11,-143.79C39.15,-124.7 31.69,-93.74 45.5,-72 59.7,-49.66 86.08,-36.57 109.78,-28.99"/>
<polygon fill="black" stroke="black" points="110.78,-32.35 119.39,-26.16 108.81,-25.63 110.78,-32.35"/>
</g>
<!-- org.sterl.testproject.persons.api.Person -->
<g id="node8" class="node">
<title>org.sterl.testproject.persons.api.Person</title>
<polygon fill="#28a745" stroke="black" points="108.5,-108 54.5,-108 54.5,-72 108.5,-72 108.5,-108"/>
<text text-anchor="middle" x="81.5" y="-86.3" font-family="Times,serif" font-size="14.00" fill="white">Person</text>
</g>
<!-- org.sterl.testproject.persons.api.PersonConverter&#45;&gt;org.sterl.testproject.persons.api.Person -->
<g id="edge10" class="edge">
<title>org.sterl.testproject.persons.api.PersonConverter&#45;&gt;org.sterl.testproject.persons.api.Person</title>
<path fill="none" stroke="black" d="M60.42,-143.7C63.57,-135.81 67.38,-126.3 70.88,-117.55"/>
<polygon fill="black" stroke="black" points="74.19,-118.69 74.66,-108.1 67.69,-116.09 74.19,-118.69"/>
</g>
<!-- org.sterl.testproject.persons.api.Adress -->
<g id="node9" class="node">
<title>org.sterl.testproject.persons.api.Adress</title>
<polygon fill="#28a745" stroke="black" points="180.5,-108 126.5,-108 126.5,-72 180.5,-72 180.5,-108"/>
<text text-anchor="middle" x="153.5" y="-86.3" font-family="Times,serif" font-size="14.00" fill="white">Adress</text>
</g>
<!-- org.sterl.testproject.persons.api.PersonConverter&#45;&gt;org.sterl.testproject.persons.api.Adress -->
<g id="edge11" class="edge">
<title>org.sterl.testproject.persons.api.PersonConverter&#45;&gt;org.sterl.testproject.persons.api.Adress</title>
<path fill="none" stroke="black" d="M77.96,-143.88C90.8,-134.89 106.7,-123.76 120.59,-114.03"/>
<polygon fill="black" stroke="black" points="122.76,-116.79 128.94,-108.19 118.74,-111.06 122.76,-116.79"/>
</g>
</g>
</svg>
