<?xml version="1.0" encoding="UTF-8" standalone="no"?>
<!DOCTYPE svg PUBLIC "-//W3C//DTD SVG 1.1//EN"
 "http://www.w3.org/Graphics/SVG/1.1/DTD/svg11.dtd">
<!-- Generated by graphviz version 2.47.2 (20210527.0053)
 -->
<!-- Pages: 1 -->
<svg width="114pt" height="188pt"
 viewBox="0.00 0.00 114.00 188.00" xmlns="http://www.w3.org/2000/svg" xmlns:xlink="http://www.w3.org/1999/xlink">
<g id="graph0" class="graph" transform="scale(1 1) rotate(0) translate(4 184)">
<polygon fill="white" stroke="transparent" points="-4,4 -4,-184 110,-184 110,4 -4,4"/>
<!-- org.sterl.testproject.simple.FooManager -->
<g id="node1" class="node">
<title>org.sterl.testproject.simple.FooManager</title>
<polygon fill="#28a745" stroke="black" points="96,-180 10,-180 10,-144 96,-144 96,-180"/>
<text text-anchor="middle" x="53" y="-158.3" font-family="Times,serif" font-size="14.00" fill="white">FooManager</text>
</g>
<!-- org.sterl.testproject.simple.BarActivity -->
<g id="node2" class="node">
<title>org.sterl.testproject.simple.BarActivity</title>
<polygon fill="#28a745" stroke="black" points="93,-108 13,-108 13,-72 93,-72 93,-108"/>
<text text-anchor="middle" x="53" y="-86.3" font-family="Times,serif" font-size="14.00" fill="white">BarActivity</text>
</g>
<!-- org.sterl.testproject.simple.FooManager&#45;&gt;org.sterl.testproject.simple.BarActivity -->
<g id="edge1" class="edge">
<title>org.sterl.testproject.simple.FooManager&#45;&gt;org.sterl.testproject.simple.BarActivity</title>
<path fill="none" stroke="black" d="M53,-143.7C53,-135.98 53,-126.71 53,-118.11"/>
<polygon fill="black" stroke="black" points="56.5,-118.1 53,-108.1 49.5,-118.1 56.5,-118.1"/>
</g>
<!-- org.sterl.testproject.simple.SimpleEntityBE -->
<g id="node3" class="node">
<title>org.sterl.testproject.simple.SimpleEntityBE</title>
<polygon fill="#28a745" stroke="black" points="106,-36 0,-36 0,0 106,0 106,-36"/>
<text text-anchor="middle" x="53" y="-14.3" font-family="Times,serif" font-size="14.00" fill="white">SimpleEntityBE</text>
</g>
<!-- org.sterl.testproject.simple.BarActivity&#45;&gt;org.sterl.testproject.simple.SimpleEntityBE -->
<g id="edge2" class="edge">
<title>org.sterl.testproject.simple.BarActivity&#45;&gt;org.sterl.testproject.simple.SimpleEntityBE</title>
<path fill="none" stroke="black" d="M53,-71.7C53,-63.98 53,-54.71 53,-46.11"/>
<polygon fill="black" stroke="black" points="56.5,-46.1 53,-36.1 49.5,-46.1 56.5,-46.1"/>
</g>
</g>
</svg>
