<?xml version="1.0" encoding="UTF-8" standalone="no"?>
<!DOCTYPE svg PUBLIC "-//W3C//DTD SVG 1.1//EN"
 "http://www.w3.org/Graphics/SVG/1.1/DTD/svg11.dtd">
<!-- Generated by graphviz version 2.47.2 (20210527.0053)
 -->
<!-- Pages: 1 -->
<svg width="140pt" height="188pt"
 viewBox="0.00 0.00 139.50 188.00" xmlns="http://www.w3.org/2000/svg" xmlns:xlink="http://www.w3.org/1999/xlink">
<g id="graph0" class="graph" transform="scale(1 1) rotate(0) translate(4 184)">
<polygon fill="white" stroke="transparent" points="-4,4 -4,-184 135.5,-184 135.5,4 -4,4"/>
<!-- org.sterl.testproject.addresses.activity.AddressManager -->
<g id="node1" class="node">
<title>org.sterl.testproject.addresses.activity.AddressManager</title>
<polygon fill="#28a745" stroke="black" points="131.5,-180 21.5,-180 21.5,-144 131.5,-144 131.5,-180"/>
<text text-anchor="middle" x="76.5" y="-158.3" font-family="Times,serif" font-size="14.00" fill="white">AddressManager</text>
</g>
<!-- org.sterl.testproject.addresses.dao.AddressDao -->
<g id="node2" class="node">
<title>org.sterl.testproject.addresses.dao.AddressDao</title>
<polygon fill="#28a745" stroke="black" points="83,-108 0,-108 0,-72 83,-72 83,-108"/>
<text text-anchor="middle" x="41.5" y="-86.3" font-family="Times,serif" font-size="14.00" fill="white">AddressDao</text>
</g>
<!-- org.sterl.testproject.addresses.activity.AddressManager&#45;&gt;org.sterl.testproject.addresses.dao.AddressDao -->
<g id="edge1" class="edge">
<title>org.sterl.testproject.addresses.activity.AddressManager&#45;&gt;org.sterl.testproject.addresses.dao.AddressDao</title>
<path fill="none" stroke="black" d="M67.85,-143.7C63.86,-135.73 59.05,-126.1 54.63,-117.26"/>
<polygon fill="black" stroke="black" points="57.65,-115.48 50.05,-108.1 51.39,-118.61 57.65,-115.48"/>
</g>
<!-- org.sterl.testproject.addresses.model.AddressBE -->
<g id="node3" class="node">
<title>org.sterl.testproject.addresses.model.AddressBE</title>
<polygon fill="#28a745" stroke="black" points="115.5,-36 37.5,-36 37.5,0 115.5,0 115.5,-36"/>
<text text-anchor="middle" x="76.5" y="-14.3" font-family="Times,serif" font-size="14.00" fill="white">AddressBE</text>
</g>
<!-- org.sterl.testproject.addresses.activity.AddressManager&#45;&gt;org.sterl.testproject.addresses.model.AddressBE -->
<g id="edge2" class="edge">
<title>org.sterl.testproject.addresses.activity.AddressManager&#45;&gt;org.sterl.testproject.addresses.model.AddressBE</title>
<path fill="none" stroke="black" d="M83.15,-143.63C86.7,-133.42 90.7,-120.17 92.5,-108 94.84,-92.17 94.84,-87.83 92.5,-72 91.22,-63.35 88.83,-54.15 86.28,-45.89"/>
<polygon fill="black" stroke="black" points="89.6,-44.78 83.15,-36.37 82.95,-46.96 89.6,-44.78"/>
</g>
<!-- org.sterl.testproject.addresses.dao.AddressDao&#45;&gt;org.sterl.testproject.addresses.model.AddressBE -->
<g id="edge3" class="edge">
<title>org.sterl.testproject.addresses.dao.AddressDao&#45;&gt;org.sterl.testproject.addresses.model.AddressBE</title>
<path fill="none" stroke="black" d="M50.15,-71.7C54.14,-63.73 58.95,-54.1 63.37,-45.26"/>
<polygon fill="black" stroke="black" points="66.61,-46.61 67.95,-36.1 60.35,-43.48 66.61,-46.61"/>
</g>
</g>
</svg>
